<svg id="Layer_1" data-name="Layer 1" xmlns="http://www.w3.org/2000/svg" viewBox="0 0 812.73 499.33"><defs><style>.cls-1{fill:#900;}</style></defs><title>Square_rhino_double-01</title><path class="cls-1" d="M49,375H59.93q9,0,12.79,1.6a13.16,13.16,0,0,1,6.12,5.32,16.29,16.29,0,0,1,2.32,8.81,15,15,0,0,1-2.56,8.93,15.43,15.43,0,0,1-7.72,5.44l12.84,24.1H72.44l-12.18-23h-.95v23H49Zm10.31,21.18h3.24c3.28,0,5.53-.43,6.77-1.29a4.85,4.85,0,0,0,1.86-4.29,5.24,5.24,0,0,0-.92-3.08,5,5,0,0,0-2.46-1.89,18.43,18.43,0,0,0-5.66-.57H59.31Z"/><path class="cls-1" d="M114.67,375h10.47v20.45h18.09V375h10.43v54.2H143.23V405.41H125.14v23.77H114.67Z"/><path class="cls-1" d="M187.94,375h10.24v54.2H187.94Z"/><path class="cls-1" d="M232.47,375h9.89l23.19,35.67V375h10.32v54.2H266l-23.17-35.56v35.56H232.47Z"/><path class="cls-1" d="M336.48,373.61a27,27,0,0,1,19.79,8.33,27.75,27.75,0,0,1,8.27,20.3,27.4,27.4,0,0,1-8.16,20.08,28.3,28.3,0,0,1-40.1-.22,28.49,28.49,0,0,1,20.2-48.49Zm-.11,10.1a17,17,0,0,0-12.65,5.23,18.2,18.2,0,0,0-5.12,13.3q0,9,6.45,14.23a17.67,17.67,0,0,0,11.51,4.09,16.79,16.79,0,0,0,12.5-5.31,19.1,19.1,0,0,0,0-26.18A17,17,0,0,0,336.37,383.71Z"/><path class="cls-1" d="M413.44,375h10.47l20.85,54.2H434L429.8,418H407.68l-4.41,11.16H392.54Zm5.3,14.37L411.47,408H426Z"/><path class="cls-1" d="M475.51,375h26.91V385H485.76v9.83h16.66v9.91H485.76v24.4H475.51Z"/><path class="cls-1" d="M534.94,375h10.93q9,0,12.79,1.6a13.24,13.24,0,0,1,6.13,5.32,16.37,16.37,0,0,1,2.31,8.81,15,15,0,0,1-2.56,8.93,15.43,15.43,0,0,1-7.72,5.44l12.84,24.1H558.39l-12.19-23h-.94v23H534.94Zm10.32,21.18h3.22c3.29,0,5.54-.43,6.78-1.29a4.85,4.85,0,0,0,1.86-4.29,5.24,5.24,0,0,0-.92-3.08,5,5,0,0,0-2.46-1.89,18.43,18.43,0,0,0-5.66-.57h-2.82Z"/><path class="cls-1" d="M599.91,375h10.24v54.2H599.91Z"/><path class="cls-1" d="M694.22,384.5,687,391.38q-7.35-7.77-16.56-7.78A18.15,18.15,0,0,0,652,402a19.34,19.34,0,0,0,2.36,9.62,16.91,16.91,0,0,0,6.66,6.6,19.32,19.32,0,0,0,9.57,2.4,19.7,19.7,0,0,0,8.21-1.68,29.27,29.27,0,0,0,8.17-6.1l7,7.3a38.63,38.63,0,0,1-11.35,8.13,31,31,0,0,1-12.19,2.26q-12.65,0-20.69-8T641.71,402a28.06,28.06,0,0,1,3.67-14.41,27.1,27.1,0,0,1,10.5-10.13,29.57,29.57,0,0,1,14.72-3.84,31.29,31.29,0,0,1,23.62,10.89Z"/><path class="cls-1" d="M742.42,375h10.47l20.84,54.2H763L758.77,418H736.65l-4.41,11.16H721.52Zm5.3,14.37L740.45,408h14.49Z"/><path class="cls-1" d="M575.83,489.34a3.34,3.34,0,0,1,2.35,5.68,3.16,3.16,0,0,1-2.35,1,3.12,3.12,0,0,1-2.33-1,3.32,3.32,0,0,1,2.33-5.68Z"/><path class="cls-1" d="M640.91,463l-3.12,2.39a16.91,16.91,0,0,0-6.2-5.09,18,18,0,0,0-7.94-1.73,17.54,17.54,0,0,0-8.77,2.27,16.36,16.36,0,0,0-6.25,6.1,17,17,0,0,0-2.22,8.62,16.18,16.18,0,0,0,5,12.07,17.19,17.19,0,0,0,12.51,4.84,17.6,17.6,0,0,0,13.9-6.51l3.12,2.37a20,20,0,0,1-7.38,5.82,23.17,23.17,0,0,1-9.88,2.05q-10.38,0-16.37-6.9a20.89,20.89,0,0,1-5-14.09,19.58,19.58,0,0,1,6.09-14.61,21,21,0,0,1,15.25-5.93,22.56,22.56,0,0,1,10,2.18A19.59,19.59,0,0,1,640.91,463Z"/><path class="cls-1" d="M684.19,454.71a20.51,20.51,0,0,1,15,6,20.79,20.79,0,0,1-14.72,35.54,20.24,20.24,0,0,1-14.85-6,19.8,19.8,0,0,1-6-14.57,21.18,21.18,0,0,1,2.75-10.57,20.41,20.41,0,0,1,17.83-10.37Zm.18,3.84A16.87,16.87,0,0,0,669.91,467a17.05,17.05,0,0,0-2.22,8.64,16.65,16.65,0,0,0,16.68,16.76,16.94,16.94,0,0,0,8.52-2.23,16,16,0,0,0,6.11-6.11,17.23,17.23,0,0,0,2.19-8.61,16.79,16.79,0,0,0-2.19-8.52,16.29,16.29,0,0,0-6.18-6.09A16.66,16.66,0,0,0,684.37,458.55Z"/><path class="cls-1" d="M727.94,495.25l5.66-39.55h.64l16.08,32.45,15.92-32.45h.63l5.69,39.55h-3.87L764.78,467l-14,28.29h-1l-14.16-28.5-3.88,28.5Z"/><path class="cls-1" d="M647.64,175.06s2.88,14.08,13.51,14.37,7.19-18.4-.29-12.65C653.1,182.53,647.64,175.06,647.64,175.06ZM587.29,23.59c-4.31-.86-3.17,2.87.28,6.32,3.74,3.16.87,9.49-2.3,13.8s-3.44,19.83,6.33,24.72,13.79,14.08,16.67,16.09,9.19,2,8.62-2.87,2-15.24,3.74-18.69c1.72-3.16,4.31-3.16.28-18.39-4-14.95-10.06-12.93-18.68-13.51C593.32,30.77,591.6,24.45,587.29,23.59ZM105.58,57.22c17.53-15.81,36.79-39.09,78.75-41.68C226,13,243,12.09,283.78,6.92c40.81-5.46,39.09,22.13,91.4,24.72s91.39-17.54,119-23c27.31-5.46,39.09,5.75,51.45,3.45C558,9.51,583.84-5.73,608.55,10.37s18.69,33.34,37.94,41.1c19.55,7.76,39.67,0,52-7.47s17.53-19,26.15-23.28,15.52-2.59,15.52-2.59a61,61,0,0,0-9.77,23.57c-2.3,13.5-10.35,27.3-21,30.17C698.8,75,688.74,74.75,690.18,82.8c1.15,7.76,8.05,43.4,13.22,49.72,4.89,6.32,10.64,11.21,19.26,2.3,8.91-8.91,17.53-27.59,17.53-27.59s4.6,53.17,0,63.52c-4.6,10.63,4.6,5.46,8.91,3.73,4.31-1.44,24.14-10.92,39.09-27,15.23-16.38,23.28-25,23-14.37s-23.28,51.16-28.74,71.28S764.33,221.62,764.33,230s14.37,21,11.21,32.19S760,289.73,745.08,289.73c-15.24,0-12.94-5.17-27.6-1.15s-16.09-5.46-29.89-9.77c-13.5-4.31-44.26-21-51.73-26.73a142.21,142.21,0,0,1-16.38-15.8c-10.06-13.51-40.53-48-48.86-69-10.06-25.3-20.7-58.64-20.7-58.64,0,.87.29,43.4,5.18,64.67,5.74,25.29,18.68,55.76,34.77,69-9.19,4-19.83,7.76-26.73,18.11-9.77,14.66-18.68,17.24-22.13,25.29-3.45,7.76-3.45,29.32.87,38.51,2.29,4.6,6.32,15.81,10.63,27.31H424c8.33-14.09,20.4-33.34,25.29-42,6.61-11.79,13.79-25,6.9-26.16-2.59-4.88-7.19-13.79-9.2-19.26-2.88-7.76-6.9-14.94-14.08-19.54s-11.5-3.74-20.7-10.92.29-51.16,2.59-53.46c2-2,0-2.87,0-2.87s-20.41,44-24.14,61.21c-3.17,14.66,10.34,45.7,14.65,55.76-29.89,5.75-68.4,11.21-100,8.34-44.55-4-68.11-20.7-78.75-29,0-.29-47.13-35.93-62.65-64.67-15.52-28.45-27-73.58-22.13-113.24s-3.74,15-3.74,15-3.74,109.21,2.59,131.63c-4.89,8.05-18.4,33.92-19.55,44.26-.86,8.34-3.45,43.4-5.17,65.25H45.51c4.89-8.05,25.29-40.53,29-59.79,4-21.84-4.89-44.55-4.6-65.81S59.59,185.12,59.31,173c-.29-11.78-4-45.41,3.45-59.49C69.37,100.33,15.33,153.21,1.54,165V134.53C9,130.51,88.05,73.31,105.58,57.22ZM203.3,337.44c-4.88,8.34-17,12.36-29.6,14.38H136.91c2-6,12.65-37.94,12.36-53.75-.58-14.66,3.73-27.31,2.3-36.21,18.39,18.68,48,39.08,54.61,43.68a27.27,27.27,0,0,0,4.88,2.59C209.62,319.34,207.33,330.55,203.3,337.44Z"/></svg>